# xmcd
# 
# Track frame offsets:
#     150
#     19360
#     35979
#     52707
#     71587
#     90007
#     105868
#     124394
#     141044
#     158996
#     175725
#     192628
#     216571
# 
# Disc length: 3116
# 
# Revision: 5
# Processed by: cddbd v1.5.2PL0 Copyright (c) Steve Scherf et al.
# Submitted via: fre:ac v1.0.31
# 
DISCID=b60c2a0d
DTITLE=B'z - C'mon
DYEAR=2011
DGENRE=Rock
TTITLE0=C'mon
TTITLE1=さよなら傷だらけの日々よ
TTITLE2=ひとしずくのアナタ
TTITLE3=Homebound
TTITLE4=Don't Wanna Lie
TTITLE5=DAREKA
TTITLE6=ボス
TTITLE7=Too Young
TTITLE8=ピルグリム
TTITLE9=ザ・マイスター
TTITLE10=デッドエンド
TTITLE11=命名
TTITLE12=ultra soul 2011
EXTD=
EXTT0=
EXTT1=
EXTT2=
EXTT3=
EXTT4=
EXTT5=
EXTT6=
EXTT7=
EXTT8=
EXTT9=
EXTT10=
EXTT11=
EXTT12=
PLAYORDER=
